<svg width="20" height="20" viewBox="0 0 20 20" fill="none" xmlns="http://www.w3.org/2000/svg">
<path d="M10.7242 9.28333H17.275C17.6754 9.28333 18 9.60793 18 10.0083C18 10.4087 17.6754 10.7333 17.275 10.7333H10.7242V17.2674C10.7242 17.672 10.3962 18 9.99158 18C9.58696 18 9.25895 17.672 9.25895 17.2674V10.7333H2.725C2.32459 10.7333 2 10.4087 2 10.0083C2 9.60793 2.32459 9.28333 2.725 9.28333H9.25895V2.73263C9.25895 2.32801 9.58696 2 9.99158 2C10.3962 2 10.7242 2.32801 10.7242 2.73263V9.28333Z" fill="#58C1EA"/>
</svg>
