<svg width="16" height="16" viewBox="0 0 16 16" fill="none" xmlns="http://www.w3.org/2000/svg">
<path d="M8.72421 7.28333H15.275C15.6754 7.28333 16 7.60793 16 8.00833C16 8.40874 15.6754 8.73333 15.275 8.73333L8.72421 8.73333L8.72421 15.2674C8.72421 15.672 8.3962 16 7.99158 16C7.58696 16 7.25895 15.672 7.25895 15.2674V8.73333H0.725001C0.324594 8.73333 0 8.40874 0 8.00833C0 7.60793 0.324594 7.28333 0.725 7.28333L7.25895 7.28333L7.25895 0.732631C7.25895 0.32801 7.58696 0 7.99158 0C8.3962 0 8.72421 0.32801 8.72421 0.732632V7.28333Z" fill="white"/>
</svg>
