<svg width="20" height="20" viewBox="0 0 20 20" fill="none" xmlns="http://www.w3.org/2000/svg">
<g clip-path="url(#clip0_2382_4947)">
<path fill-rule="evenodd" clip-rule="evenodd" d="M11.3216 1.66675C11.7129 1.66684 12.0917 1.80461 12.3916 2.05591L12.5 2.15508L16.1783 5.83341C16.455 6.1101 16.6255 6.47531 16.66 6.86508L16.6666 7.01175V16.6667C16.6668 17.0872 16.508 17.4922 16.222 17.8005C15.9361 18.1089 15.5443 18.2977 15.125 18.3292L15 18.3334H9.99996V16.6667H15V8.33341H11.25C10.9392 8.3334 10.6396 8.21765 10.4096 8.00873C10.1796 7.79982 10.0356 7.51271 10.0058 7.20341L9.99996 7.08341V3.33341H4.99996V10.0001H3.33329V3.33341C3.33316 2.91293 3.49196 2.50794 3.77787 2.19962C4.06378 1.89131 4.45566 1.70245 4.87496 1.67091L4.99996 1.66675H11.3216ZM6.42246 12.0534L8.77996 14.4109C8.93618 14.5672 9.02395 14.7791 9.02395 15.0001C9.02395 15.221 8.93618 15.433 8.77996 15.5892L6.42246 17.9459C6.34559 18.0255 6.25363 18.089 6.15196 18.1327C6.05029 18.1763 5.94094 18.1993 5.83029 18.2003C5.71964 18.2012 5.60991 18.1802 5.5075 18.1383C5.40508 18.0964 5.31204 18.0345 5.2338 17.9562C5.15555 17.878 5.09367 17.785 5.05177 17.6825C5.00987 17.5801 4.98879 17.4704 4.98975 17.3597C4.99071 17.2491 5.0137 17.1397 5.05737 17.0381C5.10105 16.9364 5.16453 16.8445 5.24413 16.7676L6.17829 15.8334H2.49996C2.27895 15.8334 2.06698 15.7456 1.9107 15.5893C1.75442 15.4331 1.66663 15.2211 1.66663 15.0001C1.66663 14.7791 1.75442 14.5671 1.9107 14.4108C2.06698 14.2545 2.27895 14.1667 2.49996 14.1667H6.17829L5.24413 13.2326C5.1667 13.1552 5.10527 13.0633 5.06335 12.9622C5.02143 12.8611 4.99983 12.7527 4.99979 12.6433C4.99971 12.4222 5.08745 12.2102 5.24371 12.0538C5.39997 11.8975 5.61194 11.8096 5.833 11.8095C5.94246 11.8095 6.05085 11.831 6.15199 11.8728C6.25313 11.9147 6.34503 11.976 6.42246 12.0534ZM11.6666 3.67841V6.66675H14.655L11.6666 3.67841Z" fill="#58C1EA"/>
</g>
<defs>
<clipPath id="clip0_2382_4947">
<rect width="20" height="20" fill="white"/>
</clipPath>
</defs>
</svg>
