<svg width="21" height="21" viewBox="0 0 21 21" fill="none" xmlns="http://www.w3.org/2000/svg">
<path d="M10.7242 9.28333H17.275C17.6754 9.28333 18 9.60793 18 10.0083C18 10.4087 17.6754 10.7333 17.275 10.7333H10.7242V17.2674C10.7242 17.672 10.3962 18 9.99158 18C9.58696 18 9.25895 17.672 9.25895 17.2674V10.7333H2.725C2.32459 10.7333 2 10.4087 2 10.0083C2 9.60793 2.32459 9.28333 2.725 9.28333H9.25895V2.73263C9.25895 2.32801 9.58696 2 9.99158 2C10.3962 2 10.7242 2.32801 10.7242 2.73263V9.28333Z" fill="#58C1EA"/>
<path d="M20.1133 16.6014L17.7558 14.2439C17.6784 14.1665 17.5865 14.1052 17.4854 14.0633C17.3842 14.0215 17.2758 14 17.1664 14C16.9453 14.0001 16.7333 14.088 16.5771 14.2443C16.4208 14.4007 16.3331 14.6127 16.3332 14.8338C16.3332 14.9433 16.3548 15.0516 16.3967 15.1527C16.4386 15.2539 16.5001 15.3457 16.5775 15.4231L17.5117 16.3573H13.8333C13.6123 16.3573 13.4004 16.445 13.2441 16.6013C13.0878 16.7576 13 16.9696 13 17.1906C13 17.4116 13.0878 17.6236 13.2441 17.7798C13.4004 17.9361 13.6123 18.0239 13.8333 18.0239H17.5117L16.5775 18.9581C16.4979 19.035 16.4344 19.1269 16.3907 19.2286C16.3471 19.3303 16.3241 19.4396 16.3231 19.5503C16.3222 19.6609 16.3432 19.7706 16.3851 19.873C16.427 19.9755 16.4889 20.0685 16.5672 20.1467C16.6454 20.225 16.7385 20.2869 16.8409 20.3288C16.9433 20.3707 17.053 20.3918 17.1637 20.3908C17.2743 20.3898 17.3837 20.3668 17.4853 20.3232C17.587 20.2795 17.679 20.216 17.7558 20.1364L20.1133 17.7798C20.2696 17.6235 20.3573 17.4116 20.3573 17.1906C20.3573 16.9696 20.2696 16.7577 20.1133 16.6014Z" fill="#58C1EA"/>
</svg>
