<svg width="10" height="16" viewBox="0 0 10 16" fill="none" xmlns="http://www.w3.org/2000/svg">
<path d="M2 16C1.45 16 0.979002 15.804 0.587002 15.412C0.195002 15.02 -0.000664969 14.5493 1.69779e-06 14C1.69779e-06 13.45 0.196001 12.979 0.588001 12.587C0.980001 12.195 1.45067 11.9993 2 12C2.55 12 3.021 12.196 3.413 12.588C3.805 12.98 4.00067 13.4507 4 14C4 14.55 3.804 15.021 3.412 15.413C3.02 15.805 2.54934 16.0007 2 16ZM8 16C7.45 16 6.979 15.804 6.587 15.412C6.195 15.02 5.99934 14.5493 6 14C6 13.45 6.196 12.979 6.588 12.587C6.98 12.195 7.45067 11.9993 8 12C8.55 12 9.021 12.196 9.413 12.588C9.805 12.98 10.0007 13.4507 10 14C10 14.55 9.804 15.021 9.412 15.413C9.02 15.805 8.54934 16.0007 8 16ZM2 10C1.45 10 0.979002 9.804 0.587002 9.412C0.195002 9.02 -0.000664969 8.54934 1.69779e-06 8C1.69779e-06 7.45 0.196001 6.979 0.588001 6.587C0.980001 6.195 1.45067 5.99934 2 6C2.55 6 3.021 6.196 3.413 6.588C3.805 6.98 4.00067 7.45067 4 8C4 8.55 3.804 9.021 3.412 9.413C3.02 9.805 2.54934 10.0007 2 10ZM8 10C7.45 10 6.979 9.804 6.587 9.412C6.195 9.02 5.99934 8.54934 6 8C6 7.45 6.196 6.979 6.588 6.587C6.98 6.195 7.45067 5.99934 8 6C8.55 6 9.021 6.196 9.413 6.588C9.805 6.98 10.0007 7.45067 10 8C10 8.55 9.804 9.021 9.412 9.413C9.02 9.805 8.54934 10.0007 8 10ZM2 4C1.45 4 0.979002 3.804 0.587002 3.412C0.195002 3.02 -0.000664969 2.54934 1.69779e-06 2C1.69779e-06 1.45 0.196001 0.979002 0.588001 0.587002C0.980001 0.195002 1.45067 -0.000664969 2 1.69779e-06C2.55 1.69779e-06 3.021 0.196001 3.413 0.588001C3.805 0.980001 4.00067 1.45067 4 2C4 2.55 3.804 3.021 3.412 3.413C3.02 3.805 2.54934 4.00067 2 4ZM8 4C7.45 4 6.979 3.804 6.587 3.412C6.195 3.02 5.99934 2.54934 6 2C6 1.45 6.196 0.979002 6.588 0.587002C6.98 0.195002 7.45067 -0.000664969 8 1.69779e-06C8.55 1.69779e-06 9.021 0.196001 9.413 0.588001C9.805 0.980001 10.0007 1.45067 10 2C10 2.55 9.804 3.021 9.412 3.413C9.02 3.805 8.54934 4.00067 8 4Z" fill="#ECECEC"/>
</svg>
