<svg width="14" height="16" viewBox="0 0 14 16" fill="none" xmlns="http://www.w3.org/2000/svg">
<path d="M1.53846 0H8.46154C8.86956 0 9.26088 0.168571 9.54939 0.468629C9.83791 0.768687 10 1.17565 10 1.6V2.4C10 2.61217 9.91896 2.81566 9.7747 2.96569C9.63044 3.11571 9.43478 3.2 9.23077 3.2C9.02676 3.2 8.8311 3.11571 8.68684 2.96569C8.54258 2.81566 8.46154 2.61217 8.46154 2.4V1.6H1.53846V14.4H8.46154V13.6C8.46154 13.3878 8.54258 13.1843 8.68684 13.0343C8.8311 12.8843 9.02676 12.8 9.23077 12.8C9.43478 12.8 9.63044 12.8843 9.7747 13.0343C9.91896 13.1843 10 13.3878 10 13.6V14.4C10 14.8243 9.83791 15.2313 9.54939 15.5314C9.26088 15.8314 8.86956 16 8.46154 16H1.53846C1.13044 16 0.739122 15.8314 0.450605 15.5314C0.162087 15.2313 0 14.8243 0 14.4V1.6C0 1.17565 0.162087 0.768687 0.450605 0.468629C0.739122 0.168571 1.13044 0 1.53846 0Z" fill="white"/>
<path d="M9.95684 11.744C10.2549 12.0853 10.7363 12.0853 11.0343 11.744L13.7763 8.60363C13.9195 8.4395 14 8.21692 14 7.98484C14 7.75276 13.9195 7.53018 13.7763 7.36605L11.0343 4.22569C10.8891 4.07532 10.6989 3.99462 10.5032 4.00028C10.3074 4.00594 10.1211 4.09752 9.98263 4.2561C9.84417 4.41467 9.76421 4.62811 9.75927 4.8523C9.75433 5.07649 9.82479 5.29428 9.95608 5.46065L11.3897 7.1096H4.76419C4.56151 7.1096 4.36714 7.20181 4.22383 7.36595C4.08051 7.53009 4 7.75271 4 7.98484C4 8.21697 4.08051 8.43959 4.22383 8.60373C4.36714 8.76787 4.56151 8.86008 4.76419 8.86008H11.3897L9.95608 10.509C9.81343 10.6731 9.7334 10.8952 9.73355 11.1267C9.73369 11.3582 9.81399 11.5802 9.95684 11.744Z" fill="white"/>
</svg>
