<svg width="18" height="18" viewBox="0 0 18 18" fill="none" xmlns="http://www.w3.org/2000/svg">
<path d="M9 0.254488C6.75235 0.179033 4.56848 1.05762 2.92792 2.69734C1.28737 4.33705 0.324231 6.60386 0.25 9C0.324231 11.3961 1.28737 13.6629 2.92792 15.3027C4.56848 16.9424 6.75235 17.821 9 17.7455C11.2476 17.821 13.4315 16.9424 15.0721 15.3027C16.7126 13.6629 17.6758 11.3961 17.75 9C17.6758 6.60386 16.7126 4.33705 15.0721 2.69734C13.4315 1.05762 11.2476 0.179033 9 0.254488ZM16.3391 8.18375L14.9937 7.83393C14.7203 7.75231 14.6984 7.72899 14.6766 7.694C14.5125 7.46079 14.3266 7.14595 14.1516 6.84277C14.1516 6.73783 14.0094 6.57458 13.9766 6.48129C13.9438 6.38801 14.3594 5.78165 14.5344 5.5018C14.723 5.2927 14.9407 5.11572 15.1797 4.97706C15.8156 5.92345 16.2147 7.02714 16.3391 8.18375ZM9 1.71207L8.90156 1.9103C8.8918 1.87213 8.8918 1.83187 8.90156 1.7937C8.90156 1.86366 8.7375 1.96861 8.62813 2.08521L8.3 2.42337C8.15035 2.5897 8.05975 2.80643 8.04378 3.03627C8.02781 3.26612 8.08747 3.49471 8.2125 3.68273H8.08125C7.90853 3.68805 7.73917 3.73485 7.58578 3.81965C7.43238 3.90444 7.29891 4.02505 7.19531 4.17248C7.07439 4.35016 6.99203 4.55428 6.9542 4.77007C6.91636 4.98586 6.924 5.20792 6.97656 5.42017V5.5018C6.81704 5.53211 6.65983 5.57498 6.50625 5.63006L6.24375 5.72335L5.54375 5.96822C5.33518 6.03336 5.14504 6.15269 4.99041 6.31551C4.83578 6.47833 4.72149 6.67954 4.65781 6.90108C4.60694 7.08699 4.6003 7.28348 4.63849 7.47281C4.67668 7.66214 4.7585 7.83834 4.87656 7.98552C5.31462 8.4903 5.82387 8.91913 6.38594 9.25654C6.93607 9.64732 7.55932 9.90594 8.2125 10.0145H10.05C10.2713 10.0032 10.4916 10.0518 10.6905 10.1558C10.8894 10.2598 11.0604 10.4158 11.1875 10.6092C11.247 10.6746 11.2909 10.7543 11.3157 10.8415C11.3404 10.9287 11.3452 11.021 11.3297 11.1106C11.3079 11.2591 11.2515 11.3995 11.1656 11.5187C10.6214 11.9933 10.2531 12.6587 10.1266 13.3961C9.98487 13.9442 9.80949 14.4817 9.60156 15.0053C9.47031 15.3667 9.35 15.7166 9.2625 15.9964C8.89559 16.0246 8.5268 15.9931 8.16875 15.9031C8.25591 15.0367 8.06297 14.1646 7.62187 13.4311C7.25404 12.9677 7.04907 12.3822 7.04219 11.7752C7.11287 11.1994 6.99024 10.6155 6.696 10.1269C6.40175 9.63816 5.95485 9.27618 5.43437 9.10495C4.20988 8.29356 3.1349 7.25026 2.2625 6.02653C2.89457 4.70748 3.86103 3.60391 5.05204 2.84123C6.24305 2.07855 7.61085 1.68734 9 1.71207ZM1.61719 9C1.61698 8.5455 1.66096 8.09219 1.74844 7.64736C2.64631 8.79308 3.73685 9.75009 4.96406 10.4692C5.62031 10.7258 5.71875 10.994 5.71875 11.7752C5.72117 12.7499 6.05542 13.6905 6.65938 14.4222C6.82067 14.928 6.87301 15.4661 6.8125 15.9964C5.35073 15.5911 4.05274 14.6888 3.11523 13.4263C2.17772 12.1638 1.65181 10.6098 1.61719 9ZM10.7172 16.0897C10.7172 15.9148 10.8484 15.7166 10.9141 15.53C11.1627 14.9269 11.3639 14.3029 11.5156 13.6643C11.6013 13.2688 11.8093 12.9155 12.1062 12.6615C12.489 12.2603 12.7122 11.7175 12.7297 11.1456C12.7431 10.8744 12.7044 10.6032 12.616 10.3485C12.5276 10.0939 12.3914 9.86118 12.2156 9.66466C11.9526 9.32057 11.6179 9.04657 11.2382 8.8644C10.8585 8.68223 10.4442 8.59691 10.0281 8.6152H8.28906C7.47222 8.37929 6.72147 7.93507 6.10156 7.32086L6.61563 7.13429L6.91094 7.04101C7.04101 6.97754 7.18382 6.94949 7.32656 6.95938L7.425 7.13429C7.50685 7.29795 7.64294 7.42324 7.80672 7.48576C7.9705 7.54827 8.15025 7.54353 8.31094 7.47245C8.47001 7.39333 8.596 7.25427 8.66465 7.08204C8.73331 6.90982 8.73978 6.7166 8.68281 6.5396V6.3297C8.5625 5.97988 8.42031 5.49013 8.33281 5.16364C8.61651 5.17632 8.89804 5.10586 9.1468 4.95989C9.39556 4.81392 9.60203 4.59805 9.74375 4.33573C9.81165 4.14034 9.8292 3.92912 9.79458 3.72405C9.75995 3.51898 9.67442 3.32754 9.54688 3.16966C9.67559 3.04651 9.79619 2.91404 9.90781 2.7732C10.0082 2.64512 10.0816 2.49556 10.1232 2.33463C10.1647 2.17369 10.1733 2.00513 10.1484 1.84034C11.6772 2.08027 13.1007 2.81262 14.2281 3.93926C13.8971 4.15477 13.6046 4.43112 13.3641 4.75551C13.1035 5.16145 12.8696 5.58614 12.6641 6.02653C12.5758 6.29834 12.5536 6.58955 12.5995 6.87298C12.6454 7.15642 12.7579 7.42283 12.9266 7.64736C13.1234 8.00884 13.3422 8.35866 13.5391 8.65018C13.8104 9.01482 14.2012 9.25645 14.6328 9.3265C14.8734 9.39646 15.7266 9.58303 16.3281 9.7113C16.1347 11.266 15.4896 12.7171 14.4833 13.861C13.477 15.005 12.1601 15.7843 10.7172 16.0897Z" fill="#58C1EA"/>
</svg>
