<svg width="16" height="16" viewBox="0 0 16 16" fill="none" xmlns="http://www.w3.org/2000/svg">
<circle cx="8" cy="8" r="8" fill="#58C1EA"/>
<path d="M7.35948 9.68079C7.1521 9.68079 6.98398 9.51268 6.98398 9.3053C6.98398 9.01126 7.02027 8.75497 7.09283 8.53642C7.1654 8.31788 7.28705 8.11324 7.45779 7.92252C7.62853 7.72781 7.85903 7.52517 8.14929 7.31457C8.44809 7.09603 8.68499 6.90728 8.86 6.74834C9.03928 6.5894 9.16734 6.43046 9.24417 6.27152C9.32527 6.10861 9.36582 5.91987 9.36582 5.7053C9.36582 5.36755 9.24204 5.11126 8.99446 4.93642C8.75115 4.75762 8.40754 4.66821 7.96361 4.66821C7.57091 4.66821 7.20168 4.71987 6.85593 4.82318C6.69125 4.87238 6.52754 4.92745 6.3648 4.98837C6.06262 5.1015 5.71614 4.98292 5.57032 4.69508C5.42088 4.40011 5.53741 4.03708 5.84546 3.9169C6.07447 3.82756 6.31311 3.75018 6.5614 3.68477C7.01813 3.56159 7.51968 3.5 8.06606 3.5C8.93684 3.5 9.60913 3.69669 10.0829 4.09007C10.561 4.48344 10.8 5.00199 10.8 5.6457C10.8 5.99934 10.7403 6.30331 10.6208 6.55762C10.5013 6.80795 10.3241 7.0404 10.0893 7.25497C9.85884 7.46556 9.57925 7.68808 9.25057 7.92252C8.98166 8.12119 8.77463 8.29404 8.6295 8.44106C8.48864 8.58411 8.39046 8.72914 8.33497 8.87616C8.28375 9.02318 8.25814 9.2 8.25814 9.40662C8.25814 9.55804 8.13539 9.68079 7.98397 9.68079H7.35948ZM6.74068 11.6C6.74068 11.2742 6.83032 11.0457 7.00959 10.9146C7.19314 10.7795 7.41724 10.7119 7.68189 10.7119C7.938 10.7119 8.15783 10.7795 8.34138 10.9146C8.52492 11.0457 8.6167 11.2742 8.6167 11.6C8.6167 11.9179 8.52492 12.1483 8.34138 12.2914C8.15783 12.4305 7.938 12.5 7.68189 12.5C7.41724 12.5 7.19314 12.4305 7.00959 12.2914C6.83032 12.1483 6.74068 11.9179 6.74068 11.6Z" fill="white"/>
</svg>
